# xmcd CD database file
#
# Track frame offsets:
#	150
#	23487
#	46780
#	57132
#	76137
#	96262
#	118537
#	142792
#	164055
#	182527
#
# Disc length: 2671 seconds
#
# Revision: 5
# Processed by: cddbd v1.4PL0 Copyright (c) Steve Scherf et al.
# Submitted via: CDex 1.51
#
DISCID=700a6d0a
DTITLE=Jean-Michel Jarre - Revolutions
DYEAR=1988
DGENRE=New Age
TTITLE0=Revolution Industrielle: Ouverture
TTITLE1=Revolution Industrielle: Part 1
TTITLE2=Revolution Industrielle: Part 2
TTITLE3=Revolution Industrielle: Part 3
TTITLE4=London Kid
TTITLE5=Revolution, Revolutions
TTITLE6=Tokyo Kid
TTITLE7=Computer Weekend
TTITLE8=September
TTITLE9=L'Emigrant
EXTD=This record is dedicated to all the children of the revolution;\nto the children of the industrial revolution,\nto those of the 1960's and the computer age,\nto the children of emigrants\nand to those of Dulcie September.\nThere will only ever be on
EXTD=e revolution--the revolution that\nthe children carry within them.\nCopyr. 1988 Disques Dreyfus, Paris CD 837 098-2 YEAR: 1988
EXTT0=
EXTT1=
EXTT2=
EXTT3=
EXTT4=
EXTT5=
EXTT6=
EXTT7=
EXTT8=A tribute to Dulcie September, one of the many South\nAfrican victims dedicated to the fight against apartheid.\nShe was assassinated in Paris on 29th March 1988.
EXTT9=
PLAYORDER=
